<?xml version="1.0" encoding="UTF-8"?><svg xmlns="http://www.w3.org/2000/svg" width="24px" height="24px" fill="none" stroke-width="1.5" viewBox="0 0 24 24" color="#000000"><path stroke="#000000" stroke-width="1.5" stroke-linecap="round" stroke-linejoin="round" d="M20.8 14.222H3.654a.6.6 0 0 0-.578.437L1.72 19.456A2 2 0 0 0 3.644 22h16.712a2 2 0 0 0 1.924-2.544l-1.48-5.234Zm0 0v-6.11M3.2 14.222V4a2 2 0 0 1 2-2H12M11 19h2M17.657 4.828l-2.829 2.829M20.485 4.828A2 2 0 1 1 17.657 2M14.828 10.485A2 2 0 0 0 12 7.657"></path></svg>